<?xml version="1.0" encoding="utf-8"?>
<!-- Generator: Adobe Illustrator 18.0.0, SVG Export Plug-In . SVG Version: 6.00 Build 0)  -->
<!DOCTYPE svg PUBLIC "-//W3C//DTD SVG 1.1//EN" "http://www.w3.org/Graphics/SVG/1.1/DTD/svg11.dtd">
<svg version="1.1" id="Layer_1" xmlns="http://www.w3.org/2000/svg" xmlns:xlink="http://www.w3.org/1999/xlink" x="0px" y="0px"
	 viewBox="0 0 4500 5400" enable-background="new 0 0 4500 5400" xml:space="preserve">
<g>
	<g>
		<g>
			<g>
				<path fill="#234074" d="M147.9,2761.7h107.4c69.3,0,116.2,2.6,140.7,7.7c24.4,5.1,43,13.6,55.8,25.3
					c12.7,11.8,20.7,24.8,23.9,39.3c3.2,14.4,4.8,42.7,4.8,85v156.2c0,40-2.3,66.8-7,80.3c-4.7,13.5-12.8,24.1-24.4,31.7
					c-11.6,7.6-25.9,12.9-43,16c-17.1,3-42.7,4.5-77.1,4.5H147.9V2761.7z M291.5,2838v293.4c20.7,0,33.4-3.3,38.2-10.1
					c4.8-6.7,7.2-24.9,7.2-54.7v-173.3c0-20.2-0.8-33.1-2.4-38.8c-1.6-5.7-5.2-9.9-10.9-12.5C317.9,2839.3,307.2,2838,291.5,2838z"
					/>
				<path fill="#234074" d="M800.7,2761.7v446H657.1v-446H800.7z"/>
				<path fill="#234074" d="M1310.9,2925.9h-143.6v-40.5c0-25.5-1.4-41.5-4.1-47.9c-2.7-6.4-9.2-9.6-19.4-9.6
					c-8.9,0-14.9,2.8-18.1,8.3c-3.2,5.5-4.8,19.7-4.8,42.4v214c0,20,1.6,33.2,4.8,39.5c3.2,6.3,9.5,9.5,19.1,9.5
					c10.5,0,17.6-3.6,21.3-10.7c3.8-7.2,5.6-21.1,5.6-41.9v-52.9h-29v-67.8h168.1v239.4h-90.2l-13.3-32c-9.8,13.8-22.1,24.1-37,31
					c-14.9,6.9-32.5,10.3-52.7,10.3c-24.1,0-46.7-4.7-67.8-14.2c-21-9.5-37-21.2-48-35.1c-10.9-14-17.8-28.6-20.5-43.9
					c-2.7-15.3-4.1-38.3-4.1-69v-132.5c0-42.6,2.8-73.6,8.5-92.8c5.7-19.3,22-37,48.9-53c26.9-16.1,61.8-24.1,104.5-24.1
					c42.1,0,77,7,104.7,20.9c27.7,14,45.8,30.5,54.2,49.7c8.4,19.2,12.6,47.1,12.6,83.6V2925.9z"/>
				<path fill="#234074" d="M1633.2,2761.7v446h-143.6v-446H1633.2z"/>
				<path fill="#234074" d="M2103.2,2761.7v89.3h-85.3v356.7h-143.6v-356.7h-84.9v-89.3H2103.2z"/>
				<path fill="#234074" d="M2507.3,2761.7l82.1,446h-146.7l-7.7-80.2h-51.4l-8.6,80.2h-148.4l73.2-446H2507.3z M2431.2,3048.5
					c-7.3-50.5-14.6-113-21.9-187.3c-14.6,85.4-23.8,147.8-27.6,187.3H2431.2z"/>
				<path fill="#234074" d="M2880.5,2761.7v356.7h87.3v89.3h-230.9v-446H2880.5z"/>
			</g>
			<g>
				<path fill="#ED7623" d="M147.9,3354.8h128.9v48.1h-51.6v45.5h48.3v45.7h-48.3v52.8H282v48.1h-134V3354.8z"/>
				<path fill="#ED7623" d="M437.8,3354.8l44.2,240.1h-79l-4.1-43.2h-27.7l-4.6,43.2h-79.9l39.4-240.1H437.8z M396.8,3509.2
					c-3.9-27.2-7.8-60.8-11.8-100.9c-7.9,46-12.8,79.6-14.8,100.9H396.8z"/>
				<path fill="#ED7623" d="M495.2,3354.8h54.7c36.5,0,61.2,1.1,74.1,3.4c12.9,2.3,23.4,8.1,31.6,17.4c8.1,9.3,12.2,24.2,12.2,44.7
					c0,18.7-2.9,31.2-8.6,37.7c-5.8,6.4-17.1,10.3-34,11.6c15.3,3.1,25.6,7.2,30.8,12.3c5.3,5.1,8.5,9.9,9.8,14.2
					c1.3,4.3,1.9,16.1,1.9,35.5v63.3H596v-79.8c0-12.9-1.3-20.8-3.8-23.9c-2.5-3.1-9.1-4.6-19.7-4.6v108.3h-77.3V3354.8z
					 M572.5,3395.8v53.4c8.7,0,14.8-1,18.3-2.9c3.5-1.9,5.2-8.2,5.2-18.8v-13.2c0-7.6-1.7-12.6-5-15
					C587.5,3397,581.4,3395.8,572.5,3395.8z"/>
				<path fill="#ED7623" d="M870.3,3354.8v240.1h-67.8l-40.2-109.2v109.2h-64.6v-240.1h64.6l43.3,108.1v-108.1H870.3z"/>
				<path fill="#ED7623" d="M978.6,3354.8v240.1h-77.3v-240.1H978.6z"/>
				<path fill="#ED7623" d="M1182.3,3354.8v240.1h-67.8l-40.2-109.2v109.2h-64.6v-240.1h64.6l43.3,108.1v-108.1H1182.3z"/>
				<path fill="#ED7623" d="M1390.7,3443.2h-77.3v-21.8c0-13.7-0.7-22.3-2.2-25.8c-1.5-3.5-5-5.2-10.5-5.2c-4.8,0-8,1.5-9.7,4.4
					c-1.7,3-2.6,10.6-2.6,22.8v115.2c0,10.8,0.9,17.9,2.6,21.3c1.7,3.4,5.1,5.1,10.3,5.1c5.6,0,9.5-1.9,11.5-5.8
					c2-3.9,3-11.4,3-22.5v-28.5h-15.6V3466h90.5v128.9h-48.6l-7.1-17.2c-5.3,7.4-11.9,13-19.9,16.7c-8,3.7-17.5,5.6-28.4,5.6
					c-13,0-25.1-2.5-36.5-7.6c-11.3-5.1-19.9-11.4-25.8-18.9c-5.9-7.5-9.6-15.4-11-23.7c-1.5-8.3-2.2-20.6-2.2-37.2v-71.3
					c0-22.9,1.5-39.6,4.6-50c3.1-10.4,11.8-19.9,26.3-28.6c14.5-8.7,33.3-13,56.3-13c22.6,0,41.4,3.8,56.4,11.3
					c14.9,7.5,24.7,16.4,29.2,26.8c4.5,10.3,6.8,25.3,6.8,45V3443.2z"/>
				<path fill="#ED7623" d="M1486.9,3354.8h77.9c21.1,0,37.2,1.3,48.6,4c11.3,2.7,19.8,6.5,25.5,11.6c5.7,5,9.5,11.1,11.6,18.3
					c2,7.2,3,18.3,3,33.3v20.9c0,15.3-2,26.5-5.9,33.5c-3.9,7-11.1,12.4-21.6,16.2c-10.5,3.8-24.1,5.6-41,5.6h-20.7v96.7h-77.3
					V3354.8z M1564.2,3395.8v61.1c2.2,0.1,4.1,0.1,5.7,0.1c7.1,0,12-1.4,14.8-4.2c2.8-2.8,4.1-8.7,4.1-17.6v-19.7
					c0-8.2-1.6-13.5-4.8-16C1580.8,3397.1,1574.2,3395.8,1564.2,3395.8z"/>
				<path fill="#ED7623" d="M1752.9,3354.8v192.1h47v48.1h-124.3v-240.1H1752.9z"/>
				<path fill="#ED7623" d="M1961.7,3354.8l44.2,240.1h-79l-4.1-43.2h-27.7l-4.6,43.2h-79.9l39.4-240.1H1961.7z M1920.7,3509.2
					c-3.9-27.2-7.8-60.8-11.8-100.9c-7.9,46-12.8,79.6-14.8,100.9H1920.7z"/>
				<path fill="#ED7623" d="M2154,3354.8v48.1h-45.9v192.1h-77.3v-192.1H1985v-48.1H2154z"/>
				<path fill="#ED7623" d="M2171.6,3354.8h130.9v48.1h-53.6v45.5h47.7v45.7h-47.7v100.9h-77.3V3354.8z"/>
				<path fill="#ED7623" d="M2497.9,3495.4c0,24.1-0.7,41.2-2.1,51.2c-1.4,10-5.8,19.2-13.2,27.5c-7.4,8.3-17.4,14.7-30,19.1
					c-12.6,4.4-27.3,6.7-44.1,6.7c-15.9,0-30.2-2.1-42.9-6.3c-12.7-4.2-22.9-10.5-30.6-18.9c-7.7-8.4-12.3-17.5-13.8-27.4
					c-1.5-9.9-2.2-27.2-2.2-51.9v-41.1c0-24.1,0.7-41.2,2.1-51.2c1.4-10,5.8-19.2,13.2-27.5c7.4-8.3,17.4-14.7,30-19.1
					c12.6-4.4,27.3-6.7,44.1-6.7c15.9,0,30.2,2.1,42.9,6.3c12.7,4.2,22.9,10.5,30.6,18.9c7.7,8.4,12.3,17.6,13.8,27.4
					c1.5,9.9,2.2,27.2,2.2,51.9V3495.4z M2420.6,3416.5c0-11.2-0.8-18.3-2.3-21.4c-1.5-3.1-4.7-4.7-9.5-4.7c-4,0-7.1,1.3-9.3,3.8
					c-2.1,2.5-3.2,10-3.2,22.3v112.1c0,13.9,0.7,22.5,2.1,25.8c1.4,3.3,4.7,4.9,9.8,4.9c5.3,0,8.6-1.9,10.1-5.6
					c1.5-3.8,2.2-12.7,2.2-26.8V3416.5z"/>
				<path fill="#ED7623" d="M2526.7,3354.8h54.7c36.5,0,61.2,1.1,74.1,3.4c12.9,2.3,23.4,8.1,31.6,17.4c8.1,9.3,12.2,24.2,12.2,44.7
					c0,18.7-2.9,31.2-8.6,37.7c-5.8,6.4-17.1,10.3-34,11.6c15.3,3.1,25.6,7.2,30.8,12.3c5.3,5.1,8.5,9.9,9.8,14.2s1.9,16.1,1.9,35.5
					v63.3h-71.8v-79.8c0-12.9-1.3-20.8-3.8-23.9c-2.5-3.1-9.1-4.6-19.7-4.6v108.3h-77.3V3354.8z M2604,3395.8v53.4
					c8.7,0,14.8-1,18.3-2.9c3.5-1.9,5.2-8.2,5.2-18.8v-13.2c0-7.6-1.7-12.6-5-15C2619.1,3397,2612.9,3395.8,2604,3395.8z"/>
				<path fill="#ED7623" d="M2967.8,3354.8v240.1h-67.6l-0.1-162.1l-26.9,162.1h-47.9l-28.4-158.4l-0.1,158.4h-67.6v-240.1h100
					c3,14.4,6,31.5,9.2,51l11,61.1l17.8-112.1H2967.8z"/>
			</g>
		</g>
		<g>
			<g>
				<rect x="146.6" y="3235.8" fill="#ED7623" width="2822.4" height="32.2"/>
			</g>
			<g>
				<rect x="146.6" y="3296.2" fill="#234074" width="2822.4" height="32.2"/>
			</g>
		</g>
		<g>
			<path fill="#ED7623" d="M3018.4,2771.4h266.1c84,0,147.7,5.3,191,15.9c43.3,10.6,78.2,31.9,104.8,64.1
				c26.6,32.2,39.9,84.1,39.9,155.6c0,48.4-9.4,82.1-28.2,101.2c-18.8,19.1-55.9,33.7-111.3,43.9c61.9,11.3,103.8,30,125.8,56.1
				c22,26.1,33.1,66.2,33.1,120.2v76.9c0,56-7.9,97.5-23.8,124.5c-15.9,27-41.1,45.4-75.7,55.3c-34.7,9.9-105.7,14.9-213,14.9
				h-308.7V2771.4z M3285.7,2912.7v184c11.3-0.3,20-0.5,26.3-0.5c25.9,0,42.4-5.2,49.5-15.6c7.1-10.4,10.6-40.1,10.6-89.2
				c0-25.9-2.9-44-8.8-54.4c-5.8-10.4-13.5-16.9-22.9-19.7C3331.1,2914.5,3312.9,2913,3285.7,2912.7z M3285.7,3225.8v232.8
				c37.1-1,60.8-5.8,71.1-14.4c10.2-8.6,15.3-29.6,15.3-63.2v-77.6c0-35.6-4.6-57.2-13.8-64.7
				C3349.2,3231.1,3325,3226.8,3285.7,3225.8z"/>
			<path fill="#234074" d="M3735.3,2771.4H3935c128.9,0,216.1,4.8,261.5,14.3c45.4,9.6,80,25.3,103.7,47.1
				c23.7,21.8,38.5,46.1,44.4,72.9s8.9,79.4,8.9,157.9v290.2c0,74.4-4.3,124.1-13,149.2c-8.7,25.1-23.8,44.7-45.3,58.9
				c-21.6,14.2-48.2,24.1-79.9,29.7c-31.7,5.6-79.5,8.4-143.3,8.4h-336.6V2771.4z M4002.6,2912.7v545.9c38,0,61.4-6.2,70.2-18.7
				c8.8-12.5,13.2-46.4,13.2-101.8v-322.4c0-37.6-1.5-61.7-4.4-72.3s-9.6-18.4-20.1-23.3C4051.1,2915.1,4031.5,2912.7,4002.6,2912.7
				z"/>
		</g>
	</g>
	<g>
		<g>
			<path fill="#234074" d="M1305.8,2393.7h484.6l177.8-238.6h-657.5c-75.5-331.2-467.6-353.1-467.6-353.1H322
				c0,0-146.1,226.5-158.3,238.6l686.7-4.9c0,0,194.8,43.8,207,221.6c12.2,177.8-194.8,243.5-194.8,243.5H424.2v-336.1H146.6v567.4
				h747.6C1293.6,2673.7,1305.8,2393.7,1305.8,2393.7z"/>
		</g>
		<g>
			<path fill="#ED7623" d="M1057.4,2732.2h796.3l146.1-221.6h-706.2C1281.4,2647,1057.4,2732.2,1057.4,2732.2z"/>
		</g>
		<g>
			<path fill="#ED7623" d="M2962.6,2150.9h-8.8v55v71.9h-160.6h-95.9c-220.3-0.6-440.6-1-661-1v455.4h275.2v-221.6h281.1h361.2H3229
				v-359.7h-177.5H2962.6z"/>
		</g>
		<g>
			<path fill="#ED7623" d="M3228.5,1800.7H2667c0,0,0,0.1,0,0.2c-39.2,0.4-78.5,1.1-117.6,1.1H1057.4
				c207,85.2,272.7,236.2,272.7,236.2h1494.9h226.6l-0.4,0.6H3229v-0.6v-237.5v-0.6L3228.5,1800.7z"/>
		</g>
	</g>
	<g>
		<path fill="#234074" d="M4093.5,2737.2c-136.7-47.3-234-136-285.7-271.8c-36.1-95-41.9-193.8-33.2-294.1
			c1.5-16.9,2.8-33.8,5.3-50.5c1.4-9.2-2.9-11.4-10.2-11.8c-131.3-6.8-253.9,18.1-361.5,98.5c-6.7,5-8.7,11.4-9.3,19.1
			c-10.6,131.6,24.4,249.3,107.8,352.1c0.7,0.8,1,1.8,3,5.5c-38.8-22.4-69.9-49.4-95.6-82.6c-42.1-54.4-64.7-117.1-77.6-184
			c-8.7-44.9-9.8-90.4-12.1-135.9c-0.7-13.4,3.3-21.6,16.1-28.8c107.9-61,222.9-98.6,346.4-110.9c61.5-6.1,122.7-5.1,184,0.8
			c11.7,1.1,11.9,5.7,9.3,15.6c-22.5,85.4-35.2,172-29.8,260.8c8.6,142.1,65.2,261.3,170,357.7
			C4043.8,2698.3,4069,2717.4,4093.5,2737.2z"/>
		<path fill="#234074" d="M4090.6,2725.3c-22-17-40-37.6-57-58.8c-82.1-102.5-121.2-219.9-117.1-350.9c2.9-93.4,29.7-180.3,80-259.3
			c8.5-13.3,6.1-17.7-7.9-22.4c-103.3-35.2-208.8-48.3-317.6-34.7c-47.8,6-94.2,17.2-142.8,32.1c9.6-29.1,18.6-56,27.4-83
			c1.8-5.6,6.1-6.4,10.9-7.6c93.5-23.4,188.1-28.7,283.7-16.6c90.8,11.5,176.2,39.3,257.5,81c14.3,7.3,13.1,12,3.8,23.2
			c-73.1,87.8-116.5,188.6-127.6,302.6c-13.8,142,21.7,270.7,104.5,386.6c1.2,1.7,2.2,3.5,3.2,5.3
			C4091.8,2723,4091.3,2723.6,4090.6,2725.3z"/>
		<path fill="#234074" d="M4104.4,2726.3c-22.6-39.6-39.6-81.5-51.8-125.3c-46-165.1-7-313.9,88.2-451.4
			c26-37.5,54.9-72.8,86.7-105.6c7.5-7.8,8.3-12.1-0.8-19.6c-98.1-81.3-209.7-132.3-335.7-152.3c-28.9-4.6-58-4.9-88.2-9
			c3-9.4,10.4-14.6,16.3-20.6c47.5-47.7,47.6-48.1,112.6-35.4c161.8,31.6,298.2,108.6,410.1,229.6c8.4,9.1,8.7,13.3-1.9,21.3
			c-89.2,67.3-164.4,146.7-212.2,249.3c-43.9,94.2-56.9,193.1-45.8,295.9C4086.5,2644.8,4094.9,2685.5,4104.4,2726.3z"/>
		<path fill="#ED7623" d="M3659.9,2299.2c-13-2.6-28.7-2.2-44.6-0.3c-9.8,1.2-13.3,3.9-9.1,13.9c12.2,29.3,24.2,58.6,35.9,88.1
			c2.8,7.2,7.5,9.2,14.5,9.5c14.3,0.5,28.7,0.4,42.8,2.6c37.9,5.8,63.2,27,75.2,64c12.9,39.6,6.2,76.2-24.4,103.3
			c-20.3,17.9-27.8,32.7-12.7,55.9c4.4,6.7,0.9,10.8-5.9,13c-2,0.6-3.9,1.6-5.9,2.4c-10.3,4.1-21.6,12.8-30.7,10.9
			c-10.1-2-10.1-17.8-14.8-27.5c-3.1-6.4-6.3-8.1-13.6-6.1c-21.5,5.9-43.4,9.4-65.9,7.4c-20.2-1.7-40.1-25.3-38-45.2
			c0.9-8.4,6.9-8.1,12.9-7.7c14.8,0.9,29.4,4.3,44.3,3.3c4.8-0.3,9.6,0,14.3-0.4c24.1-2.2,24.8-3.3,16-25.1
			c-11.3-27.9-22.9-55.8-33.9-83.8c-3.5-9.1-8.5-13.5-18.8-13c-8.9,0.4-17.9-1.2-26.8-2.3c-41.6-5.4-68.8-28.5-80.6-68.5
			c-12.2-41.3,1.8-75.5,33.1-102.3c10.9-9.4,11.4-16.2,6.2-27.9c-13.4-30.4-12.5-29.8,17.1-43.2c14.9-6.7,21.6-5,27.1,11
			c8.6,24.9,9.6,24.5,36.1,21.2c8.4-1,16.8-2.4,25.2-2.3c25.7,0.3,34.8,7.6,41.7,32.3C3681,2297.2,3678.5,2300.1,3659.9,2299.2z
			 M3721.8,2519.7c0-26.1-13.4-43.8-37.1-50.6c-4-1.2-8.9-3.4-12.1-0.6c-3.8,3.4,0.2,7.7,1.6,11.4c6.8,17.2,13.6,34.4,21,51.4
			c3.2,7.2,3.5,21,11.8,19.5c9.4-1.7,12.3-14.6,14.3-24.6C3721.9,2523.6,3721.8,2520.9,3721.8,2519.7z M3587.2,2406.7
			c-10.1-25.2-19-48.1-28.7-70.7c-4.1-9.5-7.6-2.8-10.4,1.6C3531.1,2364.7,3549.2,2399.3,3587.2,2406.7z"/>
	</g>
</g>
</svg>
